<?xml version="1.0" encoding="utf-8"?>
<!DOCTYPE svg PUBLIC "-//W3C//DTD SVG 20010904//EN" "http://www.w3.org/TR/2001/REC-SVG-20010904/DTD/svg10.dtd">
<svg version="1.0" xmlns="http://www.w3.org/2000/svg" width="200pt" height="200pt" viewBox="90 50 300 200" style="" preserveAspectRatio="xMidYMid meet">
<g fill="#513736FF" stroke="#513736FF">
<path d="M 227.674 30.487 C 208.189 34.526 189.543 50.196 180.061 70.500 C 178.263 74.350 176.667 77.634 176.516 77.797 C 176.364 77.960 174.273 76.815 171.870 75.252 C 159.041 66.907 140.661 66.712 127.500 74.781 C 111.303 84.711 100.051 106.527 100.051 128.000 C 100.051 145.858 110.879 170.680 122.738 180.008 C 125.411 182.112 125.456 182.330 125.165 191.826 C 124.877 201.220 124.974 201.709 128.498 208.739 C 134.610 220.930 144.835 230.463 159.000 237.177 C 185.378 249.680 217.892 241.453 237.356 217.350 L 242.500 210.980 244.500 213.684 C 259.059 233.370 273.280 243.814 290.592 247.534 C 298.172 249.163 299.087 249.164 307.059 247.551 C 317.343 245.472 323.778 242.134 330.591 235.346 C 342.313 223.667 347.178 202.286 341.592 187.000 C 340.687 184.525 339.847 182.089 339.724 181.588 C 339.601 181.086 341.133 180.317 343.130 179.878 C 359.333 176.320 373.769 161.378 378.416 143.356 C 380.529 135.158 380.397 123.159 378.094 114.296 C 370.248 84.091 344.373 66.850 317.064 73.630 C 313.454 74.526 308.353 76.338 305.729 77.657 C 301.284 79.891 300.915 79.933 300.325 78.277 C 297.782 71.143 293.129 62.520 288.511 56.385 C 273.138 35.960 249.603 25.941 227.674 30.487 M 251.500 34.357 C 271.239 39.620 290.420 58.641 297.024 79.500 C 297.720 81.700 298.751 83.798 299.314 84.163 C 299.877 84.528 302.624 83.553 305.419 81.996 C 320.761 73.449 340.418 74.088 354.115 83.579 C 363.030 89.758 370.726 101.208 374.700 114.205 C 376.718 120.806 376.953 137.886 375.103 143.500 C 369.111 161.683 355.546 174.545 340.228 176.567 C 337.328 176.950 334.740 177.612 334.477 178.038 C 334.213 178.464 335.131 180.996 336.516 183.664 C 345.390 200.769 339.005 226.174 323.047 237.258 C 300.261 253.084 270.426 243.565 249.035 213.644 C 246.029 209.440 243.104 206.010 242.535 206.021 C 241.966 206.033 240.159 207.946 238.521 210.271 C 228.998 223.790 216.922 232.536 200.500 237.807 C 193.442 240.073 177.304 239.950 169.500 237.571 C 142.544 229.355 124.274 206.701 128.934 187.274 L 130.105 182.392 122.802 174.946 C 110.393 162.295 104.051 146.465 104.017 128.064 C 103.986 111.051 109.469 96.546 120.123 85.450 C 135.048 69.908 156.846 67.865 173.361 80.462 C 177.680 83.756 178.517 83.665 179.933 79.750 C 188.197 56.894 205.148 40.159 225.794 34.475 C 232.033 32.757 245.271 32.696 251.500 34.357 "/></g>
<g fill="#FFF3E2FF" stroke="#FFF3E2FF">
<path d="M 225.794 34.475 C 205.148 40.159 188.197 56.894 179.933 79.750 C 178.517 83.665 177.680 83.756 173.361 80.462 C 156.846 67.865 135.048 69.908 120.123 85.450 C 109.469 96.546 103.986 111.051 104.017 128.064 C 104.051 146.465 110.393 162.295 122.802 174.946 L 130.105 182.392 128.934 187.274 C 124.274 206.701 142.544 229.355 169.500 237.571 C 177.304 239.950 193.442 240.073 200.500 237.807 C 216.922 232.536 228.998 223.790 238.521 210.271 C 240.159 207.946 241.966 206.033 242.535 206.021 C 243.104 206.010 246.029 209.440 249.035 213.644 C 270.426 243.565 300.261 253.084 323.047 237.258 C 339.005 226.174 345.390 200.769 336.516 183.664 C 335.131 180.996 334.213 178.464 334.477 178.038 C 334.740 177.612 337.328 176.950 340.228 176.567 C 355.546 174.545 369.111 161.683 375.103 143.500 C 376.953 137.886 376.718 120.806 374.700 114.205 C 370.726 101.208 363.030 89.758 354.115 83.579 C 340.418 74.088 320.761 73.449 305.419 81.996 C 302.624 83.553 299.877 84.528 299.314 84.163 C 298.751 83.798 297.720 81.700 297.024 79.500 C 290.420 58.641 271.239 39.620 251.500 34.357 C 245.271 32.696 232.033 32.757 225.794 34.475 M 257.971 61.222 C 269.591 66.826 279.062 79.453 279.362 89.738 C 279.563 96.673 277.869 96.099 275.796 88.530 C 273.599 80.510 270.753 75.854 264.566 70.161 C 258.696 64.758 252.460 61.943 244.835 61.251 C 238.773 60.702 236.704 59.472 239.122 57.855 C 241.528 56.247 251.261 57.985 257.971 61.222 "/></g>
<g fill="#513736FF" stroke="#513736FF">
<path d="M 239.122 57.855 C 236.704 59.472 238.773 60.702 244.835 61.251 C 252.460 61.943 258.696 64.758 264.566 70.161 C 270.753 75.854 273.599 80.510 275.796 88.530 C 277.869 96.099 279.563 96.673 279.362 89.738 C 279.062 79.453 269.591 66.826 257.971 61.222 C 251.261 57.985 241.528 56.247 239.122 57.855 "/></g>
</svg>
