<?xml version="1.0" encoding="utf-8"?>
<!DOCTYPE svg PUBLIC "-//W3C//DTD SVG 20010904//EN" "http://www.w3.org/TR/2001/REC-SVG-20010904/DTD/svg10.dtd">
<svg version="1.0" xmlns="http://www.w3.org/2000/svg" width="602pt" height="541pt" viewBox="0 0 602 541" style="" preserveAspectRatio="xMidYMid meet">
<g fill="#513736FF" stroke="#513736FF">
<path d="M 428.000 61.662 C 426.625 61.934 422.133 63.764 418.018 65.728 C 405.095 71.895 396.681 82.501 393.803 96.250 C 393.141 99.413 392.262 102.000 391.850 102.000 C 391.438 102.000 389.161 100.691 386.791 99.092 C 381.784 95.712 372.679 92.493 365.406 91.530 C 352.727 89.851 337.257 96.137 327.565 106.906 C 318.669 116.790 317.837 119.917 317.233 145.747 C 316.260 187.345 320.391 212.668 332.283 238.000 C 334.872 243.516 344.252 257.874 349.257 263.984 C 358.300 275.024 375.744 288.304 389.000 294.244 C 396.403 297.560 407.802 300.925 414.848 301.874 C 418.890 302.418 422.405 303.072 422.659 303.326 C 423.607 304.274 424.317 416.000 423.375 416.000 C 422.856 416.000 421.118 413.188 419.513 409.750 C 409.906 389.172 393.141 371.918 373.653 362.551 C 361.542 356.730 353.883 354.848 339.887 354.255 C 326.308 353.680 315.481 355.472 304.624 360.092 C 296.630 363.494 285.816 370.460 281.500 374.988 L 278.500 378.135 278.611 390.318 C 278.706 400.724 279.115 403.667 281.421 410.500 C 286.759 426.323 297.001 440.609 309.000 448.966 C 310.925 450.307 312.725 451.693 313.000 452.047 C 314.629 454.146 335.468 463.807 342.032 465.508 C 352.555 468.235 364.352 469.963 372.574 469.982 C 385.680 470.011 404.152 466.920 417.785 462.416 C 420.142 461.637 422.504 461.000 423.035 461.000 C 423.638 461.000 424.000 475.207 424.000 498.878 C 424.000 530.691 424.231 536.947 425.445 537.955 C 427.440 539.610 465.383 539.022 467.093 537.309 C 468.224 536.176 467.355 483.481 465.401 434.750 C 464.997 424.674 465.145 420.000 465.867 420.000 C 466.449 420.000 469.304 420.880 472.212 421.955 C 485.167 426.746 500.710 428.133 516.634 425.918 C 535.442 423.302 555.348 413.385 569.592 399.534 C 576.440 392.875 591.711 368.019 594.495 359.000 C 594.919 357.625 596.334 354.274 597.638 351.553 C 601.213 344.096 600.987 343.798 583.918 333.337 C 580.182 331.048 576.085 328.855 574.813 328.465 C 573.541 328.075 572.050 327.438 571.500 327.050 C 566.142 323.270 549.237 319.997 535.185 320.017 C 522.029 320.036 513.047 321.902 502.776 326.749 C 490.412 332.583 475.869 345.869 468.415 358.140 C 466.457 361.363 464.509 364.000 464.087 364.000 C 463.664 364.000 463.028 353.763 462.674 341.250 C 462.320 328.738 461.736 314.191 461.376 308.924 L 460.721 299.348 467.111 297.022 C 485.531 290.316 499.641 281.359 513.592 267.515 C 526.656 254.550 533.492 244.153 542.529 223.500 C 547.011 213.258 551.202 192.311 552.933 171.500 C 554.140 156.991 552.337 126.488 549.466 112.837 C 547.725 104.561 543.460 94.889 539.451 90.124 C 535.769 85.748 526.581 79.682 520.572 77.659 C 507.247 73.173 494.885 76.862 484.214 88.507 C 480.785 92.250 477.848 95.129 477.688 94.906 C 477.528 94.683 476.583 91.828 475.588 88.562 C 472.300 77.767 465.766 69.959 455.712 64.808 C 450.179 61.973 448.462 61.600 440.000 61.395 C 434.775 61.269 429.375 61.389 428.000 61.662 M 451.622 71.008 C 457.251 73.420 463.111 78.929 465.822 84.358 C 468.767 90.255 470.961 100.812 470.983 109.193 C 470.997 114.902 471.317 116.109 473.155 117.396 C 476.202 119.530 478.684 117.887 480.045 112.833 C 483.327 100.645 489.449 91.504 497.374 86.959 C 501.612 84.528 503.639 84.017 509.072 84.009 C 517.888 83.997 523.944 86.245 530.170 91.842 C 536.582 97.606 540.142 105.073 542.656 118.027 C 545.342 131.870 545.345 181.154 542.660 194.968 C 539.027 213.661 531.790 231.976 522.692 245.500 C 517.688 252.939 504.443 266.716 496.643 272.597 C 486.906 279.937 465.008 291.000 460.217 291.000 C 459.445 291.000 461.735 287.844 465.307 283.986 C 485.108 262.598 499.354 233.136 504.505 202.918 C 506.537 190.996 506.246 184.659 503.644 184.165 C 500.684 183.603 500.011 185.099 498.962 194.575 C 496.391 217.787 487.708 241.374 474.257 261.683 C 468.262 270.735 456.942 283.987 451.152 288.732 L 446.718 292.365 447.385 287.916 C 449.091 276.545 450.976 249.068 450.982 235.500 C 450.989 220.217 448.954 192.930 446.732 178.500 C 445.619 171.271 445.272 170.468 443.135 170.165 C 439.389 169.635 438.752 171.105 439.904 177.618 C 442.902 194.569 444.190 216.842 443.684 243.000 C 443.234 266.274 441.040 293.293 439.472 294.861 C 438.602 295.732 431.202 287.904 424.006 278.500 C 406.116 255.120 394.986 227.799 391.549 198.833 C 390.871 193.118 389.532 191.475 386.500 192.638 C 384.549 193.387 384.547 199.076 386.495 209.500 C 391.831 238.053 401.653 260.251 419.018 283.000 C 422.167 287.125 425.701 291.357 426.871 292.405 C 430.294 295.468 429.439 296.195 423.250 295.480 C 393.622 292.057 367.955 276.969 349.801 252.303 C 330.786 226.467 322.807 190.401 324.949 139.959 C 325.568 125.373 325.932 122.854 328.030 118.654 C 331.115 112.477 338.582 105.552 345.782 102.190 C 350.712 99.888 352.811 99.519 361.021 99.510 C 369.725 99.501 371.100 99.775 377.052 102.705 C 385.985 107.103 390.505 111.355 394.371 119.000 C 397.789 125.760 400.488 127.526 402.922 124.594 C 403.925 123.386 403.844 121.977 402.510 117.387 C 397.917 101.587 402.842 84.479 414.367 76.203 C 425.085 68.506 440.702 66.328 451.622 71.008 M 355.450 364.034 C 379.847 370.181 399.347 386.869 412.371 412.749 C 415.649 419.262 420.412 432.922 419.665 433.668 C 419.465 433.868 417.096 432.278 414.401 430.134 C 403.414 421.395 387.552 414.331 367.500 409.245 C 350.647 404.971 349.344 404.799 347.539 406.604 C 343.723 410.419 346.001 412.316 357.544 414.937 C 365.826 416.818 370.382 418.029 380.280 420.983 C 386.729 422.907 396.769 427.752 403.783 432.325 C 409.481 436.040 413.409 439.603 422.886 449.658 C 424.805 451.695 423.719 452.425 414.471 455.317 C 364.642 470.898 316.288 457.571 295.411 422.500 C 288.992 411.717 286.000 401.160 286.000 389.293 C 286.000 381.937 286.195 381.194 288.750 378.834 C 295.794 372.328 306.355 366.864 317.411 364.005 C 327.529 361.388 345.002 361.401 355.450 364.034 M 548.558 328.538 C 553.408 329.384 559.886 330.899 562.951 331.906 C 573.076 335.230 591.000 345.044 591.000 347.265 C 591.000 349.250 581.751 368.658 577.309 375.994 C 566.995 393.026 556.529 402.835 540.500 410.490 C 525.466 417.670 509.948 420.426 493.687 418.806 C 484.817 417.922 469.000 413.620 469.000 412.091 C 469.000 409.338 482.667 395.078 490.378 389.786 C 501.731 381.994 512.876 377.735 527.398 375.640 C 535.988 374.400 538.520 372.594 536.358 369.250 C 535.440 367.830 534.028 367.553 528.864 367.780 C 515.719 368.359 499.957 373.882 487.183 382.383 C 480.665 386.721 466.000 400.462 466.000 402.231 C 466.000 402.719 465.550 402.840 465.000 402.500 C 462.405 400.896 465.151 382.238 469.394 372.644 C 476.402 356.797 490.873 341.240 505.189 334.162 C 518.596 327.534 532.476 325.734 548.558 328.538 M 453.699 308.580 C 453.808 312.386 454.373 330.800 454.954 349.500 C 455.536 368.200 456.241 391.150 456.523 400.500 C 456.804 409.850 457.457 431.000 457.973 447.500 C 458.489 464.000 459.205 488.975 459.565 503.000 C 459.925 517.025 460.282 528.950 460.360 529.500 C 460.446 530.116 454.938 530.605 446.000 530.774 L 431.500 531.049 431.423 417.575 L 431.347 304.101 436.923 303.467 C 439.991 303.119 444.525 302.474 447.000 302.035 C 449.475 301.595 451.950 301.331 452.500 301.448 C 453.050 301.564 453.589 304.774 453.699 308.580 "/></g>
<g fill="#513736FF" stroke="#513736FF">
<path d="M 148.500 3.875 C 140.270 6.730 136.589 8.831 130.838 13.957 C 124.132 19.934 119.537 28.253 117.969 37.255 C 117.323 40.965 116.546 44.000 116.242 44.000 C 115.938 44.000 114.270 42.918 112.536 41.595 C 104.996 35.844 95.027 32.698 84.550 32.763 C 67.389 32.868 51.809 42.697 44.585 57.975 L 41.500 64.500 41.500 95.000 C 41.500 126.091 41.721 128.689 46.091 149.000 C 56.804 198.796 95.999 237.492 141.892 243.580 L 146.678 244.215 147.338 283.858 C 148.209 336.216 148.172 357.000 147.208 357.000 C 146.773 357.000 145.227 354.413 143.773 351.250 C 137.486 337.570 126.771 324.001 114.395 314.044 C 96.226 299.428 71.809 292.736 48.468 295.976 C 39.483 297.224 25.825 301.776 20.846 305.184 C 19.386 306.183 17.746 307.000 17.202 307.000 C 16.657 307.000 13.014 309.974 9.106 313.608 L 2.000 320.216 2.000 329.192 C 2.000 348.753 9.680 366.996 24.105 381.698 C 34.077 391.862 43.271 397.845 58.500 404.080 C 69.977 408.779 88.618 411.476 103.534 410.596 C 115.945 409.863 131.653 406.838 145.750 402.465 L 148.000 401.767 148.000 439.761 C 148.000 472.523 148.209 477.929 149.519 479.016 C 151.778 480.890 189.806 479.868 191.159 477.896 C 192.134 476.477 192.023 469.624 189.876 398.702 C 189.264 378.463 188.994 361.673 189.276 361.390 C 189.559 361.108 194.450 362.362 200.145 364.178 C 210.008 367.322 211.237 367.479 226.000 367.489 C 241.497 367.500 244.748 367.026 257.000 362.965 C 276.694 356.438 291.454 345.304 303.810 327.656 C 311.560 316.588 324.623 288.384 323.497 285.151 C 322.227 281.503 302.238 270.201 289.000 265.646 C 251.321 252.680 214.798 265.116 192.947 298.351 C 190.580 301.952 188.336 304.708 187.960 304.475 C 187.283 304.057 186.218 278.776 185.800 253.191 L 185.582 239.882 192.291 237.537 C 200.803 234.563 210.910 229.434 220.172 223.387 C 226.707 219.122 243.546 203.431 248.538 196.956 C 258.041 184.630 264.748 171.227 270.284 153.500 C 274.682 139.414 277.000 121.101 277.000 100.431 C 277.000 75.140 274.164 51.203 270.242 43.389 C 269.721 42.350 268.490 39.827 267.508 37.783 C 263.182 28.786 251.371 20.162 240.250 17.881 C 235.167 16.839 232.841 16.839 227.791 17.882 C 219.221 19.652 216.547 21.249 208.930 29.143 C 205.291 32.914 202.071 36.000 201.775 36.000 C 201.479 36.000 200.712 33.915 200.070 31.366 C 197.731 22.074 190.829 12.434 183.000 7.524 C 174.021 1.891 158.845 0.286 148.500 3.875 M 174.109 11.614 C 186.760 15.603 195.000 30.906 195.000 50.410 C 195.000 55.480 195.397 57.049 197.059 58.553 C 200.124 61.327 201.850 59.600 205.040 50.561 C 208.575 40.546 214.323 32.359 220.528 28.500 C 224.921 25.768 226.118 25.502 233.926 25.522 C 243.505 25.546 247.929 27.231 254.857 33.490 C 263.321 41.137 266.308 51.001 268.638 79.000 C 271.696 115.751 266.879 148.146 254.736 172.500 C 243.835 194.363 225.530 212.810 203.386 224.247 C 194.644 228.761 182.850 233.148 176.151 234.376 C 172.840 234.983 172.885 234.902 180.151 227.168 C 201.155 204.813 215.596 176.025 221.008 145.719 C 223.519 131.658 223.391 125.686 220.566 125.150 C 217.817 124.628 216.000 127.666 216.000 132.784 C 216.000 138.939 212.440 155.823 208.917 166.377 C 201.455 188.729 188.067 210.149 171.088 226.901 C 167.520 230.421 164.425 232.774 164.209 232.128 C 163.994 231.483 164.302 227.252 164.893 222.727 C 168.597 194.375 168.383 157.477 164.333 126.000 C 162.643 112.873 161.958 111.000 158.846 111.000 C 156.063 111.000 155.692 113.017 156.973 121.194 C 160.621 144.494 161.959 180.854 160.019 204.000 C 158.465 222.544 156.837 234.983 155.888 235.569 C 155.402 235.870 152.663 233.577 149.802 230.475 C 127.192 205.959 113.767 177.245 108.673 142.500 C 107.607 135.227 107.283 134.469 105.113 134.163 C 100.902 133.567 100.735 134.909 103.144 150.000 C 105.589 165.323 110.238 179.564 117.998 195.500 C 124.391 208.629 130.130 217.626 139.211 228.750 C 145.907 236.953 145.797 237.080 134.312 234.426 C 96.046 225.582 64.678 192.745 54.141 150.500 C 50.079 134.217 48.920 121.789 48.934 94.671 C 48.946 72.789 49.218 67.986 50.714 63.239 C 53.122 55.599 59.894 48.327 68.704 43.920 C 75.023 40.760 76.167 40.523 85.000 40.550 C 93.492 40.576 95.204 40.908 101.135 43.675 C 109.251 47.461 115.153 53.183 118.768 60.768 C 121.651 66.816 124.513 68.497 126.943 65.569 C 127.916 64.396 127.952 63.301 127.097 60.847 C 120.554 42.079 127.401 22.405 143.274 14.361 C 153.386 9.237 163.669 8.321 174.109 11.614 M 82.500 305.887 C 109.509 313.861 131.764 336.770 141.512 366.633 C 142.891 370.858 143.811 374.522 143.557 374.776 C 143.303 375.030 141.316 373.722 139.141 371.869 C 127.401 361.867 109.188 354.317 80.737 347.656 C 73.235 345.900 71.392 346.190 70.411 349.280 C 69.692 351.546 72.900 355.000 75.724 355.000 C 77.739 355.000 93.018 358.674 100.573 360.976 C 117.963 366.273 130.839 373.826 140.970 384.675 C 144.889 388.871 147.736 392.612 147.298 392.987 C 146.859 393.362 144.475 394.383 142.000 395.255 C 99.498 410.227 55.323 403.035 30.000 377.020 C 16.720 363.378 11.135 350.891 10.250 332.871 L 9.728 322.243 15.485 317.724 C 24.083 310.976 35.328 305.892 45.970 303.941 C 53.930 302.482 74.718 303.589 82.500 305.887 M 280.060 271.064 C 288.450 273.116 308.281 282.155 312.869 286.018 C 315.613 288.329 315.690 288.033 308.197 304.000 C 295.285 331.511 280.410 346.246 256.753 354.961 C 238.550 361.667 214.416 361.818 197.250 355.334 C 194.913 354.451 193.000 353.380 193.000 352.954 C 193.000 351.417 200.826 342.325 206.759 336.971 C 214.016 330.420 221.385 325.846 230.952 321.953 C 237.971 319.096 251.567 316.000 257.091 316.000 C 259.323 316.000 260.102 315.441 260.593 313.487 C 261.692 309.105 259.509 307.751 252.564 308.507 C 228.687 311.106 206.748 322.744 191.856 340.711 L 189.212 343.901 188.615 339.701 C 187.346 330.787 191.462 315.498 198.123 304.380 C 206.329 290.681 223.317 276.321 236.257 272.143 C 245.219 269.249 245.264 269.243 259.060 269.116 C 268.664 269.027 273.605 269.486 280.060 271.064 M 178.392 272.230 C 178.747 288.329 179.269 306.225 179.553 312.000 C 180.100 323.167 182.661 407.276 183.687 447.750 L 184.301 472.000 169.901 472.000 L 155.500 472.000 155.356 358.604 L 155.212 245.208 158.231 244.604 C 159.891 244.272 163.331 243.947 165.875 243.882 C 168.419 243.817 171.850 243.447 173.500 243.060 C 175.150 242.673 176.780 242.493 177.123 242.659 C 177.465 242.825 178.036 256.132 178.392 272.230 "/></g>
<g fill="#FEC2C2FF" stroke="#FEC2C2FF">
<path d="M 154.402 10.475 C 138.325 14.002 128.250 23.865 125.362 38.905 C 124.057 45.698 124.715 54.015 127.097 60.847 C 127.952 63.301 127.916 64.396 126.943 65.569 C 124.513 68.497 121.651 66.816 118.768 60.768 C 115.153 53.183 109.251 47.461 101.135 43.675 C 95.204 40.908 93.492 40.576 85.000 40.550 C 76.167 40.523 75.023 40.760 68.704 43.920 C 59.894 48.327 53.122 55.599 50.714 63.239 C 49.218 67.986 48.946 72.789 48.934 94.671 C 48.920 121.789 50.079 134.217 54.141 150.500 C 64.678 192.745 96.046 225.582 134.312 234.426 C 145.797 237.080 145.907 236.953 139.211 228.750 C 130.130 217.626 124.391 208.629 117.998 195.500 C 110.238 179.564 105.589 165.323 103.144 150.000 C 100.735 134.909 100.902 133.567 105.113 134.163 C 107.283 134.469 107.607 135.227 108.673 142.500 C 113.767 177.245 127.192 205.959 149.802 230.475 C 152.663 233.577 155.402 235.870 155.888 235.569 C 156.837 234.983 158.465 222.544 160.019 204.000 C 161.959 180.854 160.621 144.494 156.973 121.194 C 155.692 113.017 156.063 111.000 158.846 111.000 C 161.958 111.000 162.643 112.873 164.333 126.000 C 168.383 157.477 168.597 194.375 164.893 222.727 C 164.302 227.252 163.994 231.483 164.209 232.128 C 164.425 232.774 167.520 230.421 171.088 226.901 C 188.067 210.149 201.455 188.729 208.917 166.377 C 212.440 155.823 216.000 138.939 216.000 132.784 C 216.000 127.666 217.817 124.628 220.566 125.150 C 223.391 125.686 223.519 131.658 221.008 145.719 C 215.596 176.025 201.155 204.813 180.151 227.168 C 172.885 234.902 172.840 234.983 176.151 234.376 C 188.455 232.121 207.516 223.227 219.915 213.956 C 257.529 185.830 273.781 140.813 268.638 79.000 C 266.308 51.001 263.321 41.137 254.857 33.490 C 247.929 27.231 243.505 25.546 233.926 25.522 C 226.118 25.502 224.921 25.768 220.528 28.500 C 214.323 32.359 208.575 40.546 205.040 50.561 C 201.850 59.600 200.124 61.327 197.059 58.553 C 195.397 57.049 195.000 55.480 195.000 50.410 C 195.000 41.833 192.517 30.720 189.265 24.745 C 182.790 12.848 169.109 7.248 154.402 10.475 "/></g>
<g fill="#CCE2F7FF" stroke="#CCE2F7FF">
<path d="M 428.000 70.309 C 416.657 73.595 408.531 80.318 404.264 89.948 C 401.354 96.517 400.351 106.759 402.008 113.000 C 404.132 120.996 404.302 124.504 402.635 125.888 C 399.840 128.207 397.586 126.641 394.336 120.121 C 392.594 116.628 389.669 112.220 387.835 110.326 C 383.394 105.741 373.937 101.201 366.247 99.962 C 351.750 97.628 335.295 105.661 328.900 118.196 C 326.217 123.455 325.015 135.004 325.017 155.500 C 325.021 204.168 335.342 236.734 358.808 262.122 C 375.477 280.156 399.450 292.526 421.951 294.703 L 428.402 295.327 422.525 288.413 C 402.751 265.153 389.200 234.585 384.986 203.730 C 383.706 194.363 384.313 192.000 388.000 192.000 C 390.841 192.000 391.711 193.996 392.935 203.319 C 396.313 229.053 407.689 256.426 423.616 277.145 C 430.445 286.029 438.225 294.180 439.037 293.302 C 439.445 292.861 440.578 285.075 441.554 276.000 C 444.210 251.326 443.991 216.199 441.023 190.646 C 439.071 173.837 438.930 170.658 440.109 169.912 C 444.708 166.999 446.107 169.517 448.303 184.650 C 449.999 196.334 450.327 204.051 450.406 234.000 C 450.473 259.296 450.102 272.312 449.117 279.284 C 448.356 284.664 448.069 289.389 448.480 289.784 C 448.890 290.178 452.792 286.675 457.151 282.000 C 480.180 257.302 494.173 228.039 498.036 196.500 C 499.406 185.309 500.240 183.000 502.913 183.000 C 507.759 183.000 507.997 189.222 503.920 209.340 C 501.140 223.058 497.840 232.563 491.019 246.500 C 483.922 261.004 477.524 270.839 468.072 281.778 C 464.164 286.300 461.339 290.000 461.794 290.000 C 462.249 290.000 465.456 288.889 468.921 287.531 C 495.548 277.096 519.763 254.325 531.409 228.770 C 538.269 213.715 542.296 197.667 544.080 178.265 C 546.184 155.392 543.504 117.767 538.892 105.442 C 534.895 94.759 523.682 85.684 512.917 84.421 C 498.768 82.761 488.502 91.018 481.740 109.493 C 478.637 117.970 478.275 118.500 475.581 118.500 C 474.006 118.500 472.375 117.825 471.956 117.000 C 471.537 116.175 470.722 110.737 470.145 104.915 C 469.567 99.093 468.159 91.826 467.014 88.767 C 464.407 81.799 458.659 75.183 452.570 72.142 C 446.804 69.262 434.725 68.361 428.000 70.309 "/></g>
<g fill="#5CC199FF" stroke="#5CC199FF">
<path d="M 323.238 363.042 C 310.046 365.411 295.167 372.629 289.005 379.647 L 285.741 383.365 286.400 392.101 C 287.712 409.484 293.226 421.861 305.452 434.871 C 325.535 456.240 357.077 465.191 393.500 459.858 C 401.384 458.703 421.020 453.354 422.408 451.982 C 423.632 450.771 415.064 440.861 408.610 436.023 C 396.737 427.122 383.195 421.461 361.899 416.498 C 347.153 413.060 346.000 412.569 346.000 409.721 C 346.000 406.851 347.748 404.998 350.450 405.005 C 351.578 405.008 358.671 406.554 366.214 408.441 C 387.786 413.835 402.871 420.507 414.776 429.917 L 419.777 433.871 418.054 428.179 C 408.594 396.936 385.856 373.188 357.500 364.938 C 349.403 362.582 331.358 361.583 323.238 363.042 "/></g>
<g fill="#5CC199FF" stroke="#5CC199FF">
<path d="M 45.000 304.617 C 32.618 307.315 23.040 311.879 14.726 319.040 L 9.719 323.353 10.306 332.974 C 12.965 376.631 55.038 406.354 108.000 401.992 C 122.989 400.758 145.826 395.023 146.746 392.262 C 146.945 391.664 143.821 387.846 139.804 383.777 C 127.480 371.294 112.566 364.033 85.941 357.555 C 78.339 355.705 71.642 353.897 71.059 353.537 C 69.465 352.551 69.787 348.422 71.575 346.938 C 72.883 345.853 74.872 346.010 83.325 347.867 C 105.296 352.696 125.345 360.761 136.500 369.259 C 139.800 371.773 142.644 373.687 142.820 373.512 C 143.499 372.836 138.971 359.883 135.944 353.843 C 122.511 327.031 100.720 309.439 74.873 304.535 C 65.077 302.677 53.761 302.708 45.000 304.617 "/></g>
<g fill="#5CC199FF" stroke="#5CC199FF">
<path d="M 242.000 270.890 C 232.450 273.408 226.397 276.420 218.066 282.801 C 208.861 289.850 200.205 300.592 195.082 311.326 C 190.608 320.699 189.000 327.372 189.000 336.568 L 189.000 343.037 195.510 336.137 C 207.739 323.173 224.207 313.857 241.752 309.978 C 252.508 307.599 258.330 307.473 260.429 309.571 C 262.381 311.524 262.382 312.009 260.443 314.777 C 259.204 316.547 257.913 317.000 254.103 317.000 C 242.514 317.000 223.223 324.433 211.410 333.449 C 205.235 338.163 192.805 351.875 193.576 353.123 C 193.821 353.520 196.829 354.768 200.261 355.896 C 220.734 362.631 245.740 360.682 265.353 350.824 C 285.049 340.924 296.881 327.511 309.112 301.219 L 315.028 288.500 312.264 286.245 C 308.442 283.127 295.137 276.287 288.232 273.890 C 273.468 268.765 254.682 267.546 242.000 270.890 "/></g>
<g fill="#5CC199FF" stroke="#5CC199FF">
<path d="M 520.500 328.978 C 501.756 333.106 483.665 347.264 473.193 366.000 C 468.216 374.905 465.000 386.165 465.000 394.685 L 465.000 402.114 470.686 395.972 C 485.682 379.775 507.624 368.729 527.639 367.300 C 535.239 366.757 535.855 366.861 536.925 368.859 C 538.817 372.395 536.766 374.783 531.247 375.467 C 513.833 377.625 498.248 383.928 485.762 393.863 C 478.831 399.379 470.000 409.429 470.000 411.802 C 470.000 413.147 480.500 416.506 489.732 418.114 C 499.511 419.817 515.583 418.685 526.364 415.534 C 555.031 407.154 572.704 389.703 587.397 355.267 L 590.910 347.034 586.705 344.151 C 577.831 338.068 570.432 334.639 558.000 330.848 C 550.669 328.613 527.423 327.454 520.500 328.978 "/></g>
<g fill="#5CC199FF" stroke="#5CC199FF">
<path d="M 440.092 303.304 L 430.685 304.302 431.340 333.401 C 431.701 349.406 431.997 400.471 431.998 446.880 L 432.000 531.261 445.494 530.803 C 452.915 530.552 459.274 530.059 459.624 529.709 C 459.974 529.359 459.737 514.319 459.098 496.287 C 457.664 455.831 456.325 410.305 454.972 356.000 C 453.722 305.844 453.447 301.944 451.170 302.153 C 450.252 302.237 445.267 302.755 440.092 303.304 "/></g>
<g fill="#5CC199FF" stroke="#5CC199FF">
<path d="M 169.500 244.000 C 167.850 244.420 163.841 244.817 160.591 244.882 L 154.682 245.000 155.341 266.161 C 155.703 277.800 156.000 328.939 156.000 379.803 L 156.000 472.284 169.542 471.767 C 176.989 471.483 183.302 471.031 183.571 470.763 C 183.839 470.495 183.596 455.701 183.032 437.888 C 182.468 420.074 181.320 382.775 180.480 355.000 C 178.720 296.776 177.080 243.613 177.033 243.250 C 176.972 242.787 172.525 243.230 169.500 244.000 "/></g>
<g fill="#FEC2C2FF" stroke="#FEC2C2FF">
<path d="M 524.000 88.062 C 525.925 89.193 529.632 92.228 532.239 94.809 C 536.442 98.969 536.611 99.056 533.739 95.578 C 530.298 91.412 523.433 85.998 521.600 86.004 C 520.995 86.006 522.075 86.932 524.000 88.062 "/></g>
<g fill="#FEC2C2FF" stroke="#FEC2C2FF">
<path d="M 427.964 283.494 C 430.431 286.872 438.377 295.000 439.212 295.000 C 439.646 295.000 440.000 294.523 440.000 293.941 C 440.000 293.359 439.588 293.136 439.085 293.447 C 438.582 293.758 435.545 291.195 432.335 287.751 C 429.126 284.307 427.159 282.391 427.964 283.494 "/></g>
<g fill="#FEC2C2FF" stroke="#FEC2C2FF">
<path d="M 500.626 183.707 C 500.238 184.096 501.175 184.433 502.710 184.457 C 505.304 184.497 505.542 184.850 506.093 189.500 L 506.686 194.500 506.843 189.950 C 506.929 187.448 506.460 184.860 505.800 184.200 C 504.472 182.872 501.723 182.610 500.626 183.707 "/></g>
<g fill="#FEC2C2FF" stroke="#FEC2C2FF">
<path d="M 464.152 396.191 C 464.069 399.321 464.338 402.091 464.750 402.346 C 465.163 402.602 465.231 400.041 464.902 396.655 L 464.305 390.500 464.152 396.191 "/></g>
<g fill="#FEC2C2FF" stroke="#FEC2C2FF">
<path d="M 463.042 286.649 C 458.900 290.691 458.758 290.994 461.042 290.921 C 462.394 290.878 462.913 290.607 462.195 290.319 C 461.279 289.952 461.875 288.679 464.195 286.048 C 466.945 282.928 466.751 283.029 463.042 286.649 "/></g>
<g fill="#FEC2C2FF" stroke="#FEC2C2FF">
<path d="M 361.000 265.000 L 367.000 271.000 361.000 265.000 L 355.000 259.000 361.000 265.000 "/></g>
<g fill="#FEC2C2FF" stroke="#FEC2C2FF">
<path d="M 177.098 248.345 L 177.695 254.500 177.848 248.809 C 177.931 245.679 177.663 242.909 177.250 242.654 C 176.838 242.398 176.769 244.959 177.098 248.345 "/></g>
<g fill="#FEC2C2FF" stroke="#FEC2C2FF">
<path d="M 425.357 291.666 L 428.214 294.833 425.857 295.280 C 423.703 295.689 423.737 295.739 426.250 295.864 C 429.835 296.041 429.720 295.025 425.750 291.437 L 422.500 288.500 425.357 291.666 "/></g>
<g fill="#FEC2C2FF" stroke="#FEC2C2FF">
<path d="M 416.140 280.545 C 417.935 283.045 420.076 285.632 420.897 286.295 C 421.718 286.958 420.448 284.913 418.075 281.750 C 412.968 274.945 411.431 273.988 416.140 280.545 "/></g>
<g fill="#FEC2C2FF" stroke="#FEC2C2FF">
<path d="M 469.691 267.234 L 465.882 272.500 469.434 268.500 C 471.388 266.300 473.102 263.930 473.243 263.234 C 473.384 262.538 471.786 264.338 469.691 267.234 "/></g>
<g fill="#FEC2C2FF" stroke="#FEC2C2FF">
<path d="M 460.585 78.000 C 462.709 80.475 464.580 82.379 464.743 82.232 C 464.905 82.085 463.168 80.060 460.881 77.732 L 456.723 73.500 460.585 78.000 "/></g>
</svg>
