<?xml version="1.0" encoding="utf-8"?>
<!DOCTYPE svg PUBLIC "-//W3C//DTD SVG 20010904//EN" "http://www.w3.org/TR/2001/REC-SVG-20010904/DTD/svg10.dtd">
<svg version="1.0" xmlns="http://www.w3.org/2000/svg" width="551pt" height="602pt" viewBox="0 0 551 602" style="" preserveAspectRatio="xMidYMid meet">
<g fill="#513736FF" stroke="#513736FF">
<path d="M 97.619 282.555 C 89.017 284.264 73.063 289.496 66.623 292.721 C 60.611 295.731 49.569 303.612 41.212 310.858 C 34.965 316.275 19.804 335.335 16.470 341.963 C 10.031 354.764 3.772 378.578 2.530 395.000 C 1.507 408.519 4.268 431.135 8.695 445.500 C 10.343 450.848 13.742 461.211 14.927 464.500 C 16.852 469.844 26.642 488.483 33.301 499.481 C 40.057 510.640 67.439 540.599 87.000 558.234 C 96.158 566.491 112.641 580.000 113.557 580.000 C 114.321 580.000 118.957 583.638 125.796 589.603 C 128.383 591.860 132.330 595.014 134.567 596.612 L 138.633 599.517 151.067 598.767 C 195.112 596.112 206.445 595.022 227.500 591.420 C 250.081 587.557 264.057 583.793 280.000 577.281 C 291.869 572.433 305.848 565.363 310.000 562.109 C 311.925 560.600 314.195 559.108 315.044 558.793 C 323.298 555.734 354.650 526.049 360.932 515.347 C 362.819 512.131 365.994 506.993 367.986 503.928 C 369.979 500.864 372.200 496.814 372.922 494.928 C 373.644 493.043 374.812 490.150 375.518 488.500 C 382.960 471.103 386.537 446.256 384.093 428.925 C 379.536 396.601 362.181 368.028 336.623 350.771 C 331.741 347.475 325.216 343.658 322.123 342.290 C 302.022 333.399 267.987 333.187 246.000 341.815 C 238.841 344.625 219.120 355.946 217.059 358.429 C 214.404 361.628 212.367 360.274 210.017 353.750 C 205.052 339.967 197.188 326.440 188.437 316.631 C 174.640 301.163 163.653 293.373 147.280 287.446 C 129.957 281.175 112.980 279.503 97.619 282.555 M 135.826 293.967 C 156.984 299.980 176.285 314.070 188.340 332.302 C 194.145 341.082 200.616 355.605 202.464 364.000 C 205.831 379.297 207.607 379.987 218.473 370.214 C 230.435 359.455 244.404 351.896 259.671 347.919 C 269.861 345.265 287.239 344.366 297.983 345.937 C 330.779 350.733 358.205 375.323 369.433 410.000 C 373.915 423.841 375.398 434.600 374.722 448.378 C 373.263 478.150 360.254 504.954 335.086 530.048 C 313.176 551.893 288.486 565.931 255.500 575.298 C 231.739 582.044 195.397 586.894 156.000 588.575 L 140.500 589.237 135.000 584.925 C 95.838 554.223 78.563 538.996 63.061 521.515 C 38.720 494.068 24.668 468.583 16.873 437.748 C 14.153 426.988 13.716 423.313 13.276 407.500 C 12.728 387.780 13.784 379.171 18.659 363.626 C 30.462 325.989 63.024 298.034 102.500 291.649 C 109.237 290.559 128.566 291.904 135.826 293.967 "/></g>
<g fill="#513736FF" stroke="#513736FF">
<path d="M 251.500 3.003 C 243.045 4.416 234.230 6.813 230.432 8.732 C 229.369 9.269 224.135 11.854 218.799 14.477 C 211.020 18.302 207.210 21.019 199.563 28.196 C 182.872 43.861 175.298 54.506 167.642 73.060 C 161.702 87.457 160.547 94.176 160.522 114.500 C 160.498 133.935 161.235 139.128 166.269 155.000 C 174.495 180.941 188.743 204.316 208.538 224.350 C 235.864 252.006 274.693 273.875 335.760 296.003 C 344.703 299.243 352.425 302.144 352.918 302.450 C 353.412 302.755 358.020 301.387 363.158 299.410 C 368.296 297.432 374.975 295.000 378.000 294.005 C 381.025 293.010 384.850 291.479 386.500 290.604 C 388.150 289.729 390.045 289.010 390.712 289.006 C 391.378 289.003 395.203 287.486 399.212 285.635 C 403.220 283.784 408.075 281.700 410.000 281.004 C 414.566 279.353 438.632 267.556 442.500 265.072 C 444.150 264.013 446.177 263.113 447.005 263.073 C 448.839 262.984 474.567 246.295 481.500 240.697 C 487.947 235.491 510.000 213.799 510.000 212.663 C 510.000 212.185 511.994 209.576 514.432 206.865 C 519.069 201.707 531.188 182.083 535.037 173.500 C 538.545 165.676 543.953 149.368 545.448 142.104 C 549.651 121.689 549.482 104.554 544.902 86.616 C 542.361 76.662 539.312 69.036 533.263 57.500 C 527.189 45.917 511.823 28.550 504.343 24.814 C 502.006 23.647 498.635 21.187 496.851 19.346 C 495.067 17.506 492.608 16.000 491.387 16.000 C 490.166 16.000 489.017 15.655 488.833 15.234 C 488.367 14.163 474.237 7.332 470.000 6.129 C 468.075 5.583 464.504 4.556 462.065 3.847 C 456.040 2.096 428.580 2.020 426.850 3.750 C 426.163 4.437 424.170 5.000 422.422 5.000 C 419.424 5.000 413.658 6.837 409.738 9.041 C 408.769 9.586 405.844 10.744 403.238 11.614 C 400.632 12.484 397.350 14.277 395.945 15.598 C 394.540 16.919 392.922 18.000 392.350 18.000 C 391.778 18.000 390.495 18.900 389.500 20.000 C 388.505 21.100 387.332 22.000 386.895 22.000 C 383.844 22.000 362.031 42.301 357.029 49.796 C 354.919 52.958 352.858 52.516 350.000 48.289 C 346.749 43.482 325.122 22.000 323.532 22.000 C 322.860 22.000 321.495 21.100 320.500 20.000 C 319.505 18.900 317.945 18.000 317.034 18.000 C 316.123 18.000 314.411 17.100 313.230 16.000 C 312.050 14.900 310.390 14.000 309.542 14.000 C 308.694 14.000 308.000 13.621 308.000 13.158 C 308.000 12.695 306.088 11.749 303.750 11.055 C 301.413 10.361 299.046 9.425 298.492 8.975 C 296.665 7.492 288.556 5.029 285.450 5.015 C 283.773 5.007 281.973 4.588 281.450 4.085 C 280.122 2.806 257.559 1.991 251.500 3.003 M 287.000 14.939 C 299.220 18.397 315.372 26.983 324.767 35.013 C 334.283 43.148 340.247 50.280 346.706 61.250 C 350.615 67.888 351.659 69.000 353.980 69.000 C 357.050 69.000 358.456 67.543 362.007 60.685 C 363.378 58.037 367.279 52.445 370.677 48.260 C 384.121 31.696 399.990 21.346 422.000 14.788 C 430.390 12.287 448.403 11.342 457.494 12.925 C 499.240 20.195 532.512 57.510 538.095 103.321 C 541.392 130.373 532.136 163.871 513.695 191.629 C 486.267 232.914 444.383 259.890 361.747 289.493 L 353.995 292.270 342.247 288.029 C 321.523 280.546 292.109 268.120 276.970 260.452 C 250.422 247.005 231.011 233.091 213.836 215.197 C 193.429 193.935 180.727 171.689 173.186 144.000 C 170.817 135.304 170.598 132.851 170.592 115.000 C 170.587 96.521 170.732 95.029 173.355 86.500 C 184.501 50.268 211.369 22.748 243.500 14.653 C 253.243 12.198 253.949 12.133 267.000 12.482 C 275.878 12.719 281.673 13.431 287.000 14.939 "/></g>
<g fill="#E94E5CFF" stroke="#E94E5CFF">
<path d="M 252.000 12.645 C 213.892 20.216 185.561 46.822 173.355 86.500 C 170.732 95.029 170.587 96.521 170.592 115.000 C 170.598 132.851 170.817 135.304 173.186 144.000 C 186.781 193.918 220.656 231.928 276.970 260.452 C 292.109 268.120 321.523 280.546 342.247 288.029 L 353.995 292.270 361.747 289.493 C 444.383 259.890 486.267 232.914 513.695 191.629 C 532.136 163.871 541.392 130.373 538.095 103.321 C 532.512 57.510 499.240 20.195 457.494 12.925 C 448.403 11.342 430.390 12.287 422.000 14.788 C 399.990 21.346 384.121 31.696 370.677 48.260 C 367.279 52.445 363.378 58.037 362.007 60.685 C 358.456 67.543 357.050 69.000 353.980 69.000 C 351.659 69.000 350.615 67.888 346.706 61.250 C 336.310 43.594 323.189 31.256 305.500 22.504 C 290.216 14.941 282.343 12.892 267.000 12.482 C 260.125 12.298 253.375 12.371 252.000 12.645 M 458.540 37.522 C 482.925 43.747 497.336 62.255 497.453 87.500 C 497.493 96.072 497.096 98.599 494.669 105.195 C 493.111 109.427 491.226 113.398 490.479 114.017 C 488.490 115.668 483.926 114.807 482.432 112.500 C 481.324 110.787 481.522 109.639 483.811 104.500 C 486.181 99.182 486.485 97.250 486.492 87.500 C 486.499 77.236 486.290 76.057 483.362 69.877 C 479.051 60.778 474.121 55.662 465.629 51.474 C 453.839 45.658 439.895 44.900 430.842 49.582 C 426.850 51.646 424.261 51.328 422.440 48.549 C 419.259 43.695 422.351 40.725 434.000 37.446 C 440.270 35.680 451.464 35.715 458.540 37.522 "/></g>
<g fill="#E94E5CFF" stroke="#E94E5CFF">
<path d="M 102.500 291.649 C 88.121 293.975 73.622 299.513 61.888 307.161 C 36.128 323.953 20.564 348.052 14.443 380.626 C 13.125 387.643 12.881 393.266 13.276 407.500 C 13.716 423.313 14.153 426.988 16.873 437.748 C 24.668 468.583 38.720 494.068 63.061 521.515 C 78.563 538.996 95.838 554.223 135.000 584.925 L 140.500 589.237 156.000 588.575 C 246.879 584.697 296.559 568.461 335.086 530.048 C 360.254 504.954 373.263 478.150 374.722 448.378 C 376.598 410.111 357.138 372.731 326.497 355.747 C 311.501 347.435 297.227 344.323 278.578 345.300 C 255.556 346.506 235.667 354.750 218.473 370.214 C 207.607 379.987 205.831 379.297 202.464 364.000 C 200.616 355.605 194.145 341.082 188.340 332.302 C 176.285 314.070 156.984 299.980 135.826 293.967 C 128.566 291.904 109.237 290.559 102.500 291.649 M 300.150 386.938 C 319.514 392.996 334.690 410.937 337.842 431.500 C 340.256 447.240 334.671 465.634 323.902 477.417 C 318.305 483.541 314.059 484.847 312.035 481.066 C 310.293 477.811 310.826 476.262 315.500 471.000 C 329.007 455.792 331.725 435.127 322.459 418.101 C 318.654 411.110 309.385 402.542 301.788 398.993 C 295.181 395.906 283.674 393.741 278.364 394.586 C 272.810 395.469 269.944 389.952 273.750 385.705 C 275.319 383.955 276.432 383.810 284.500 384.305 C 289.450 384.609 296.492 385.794 300.150 386.938 "/></g>
<g fill="#513736FF" stroke="#513736FF">
<path d="M 273.750 385.705 C 269.944 389.952 272.810 395.469 278.364 394.586 C 283.674 393.741 295.181 395.906 301.788 398.993 C 309.385 402.542 318.654 411.110 322.459 418.101 C 331.725 435.127 329.007 455.792 315.500 471.000 C 310.826 476.262 310.293 477.811 312.035 481.066 C 314.059 484.847 318.305 483.541 323.902 477.417 C 343.417 456.064 342.934 421.143 322.847 401.179 C 312.133 390.530 300.173 385.268 284.500 384.305 C 276.432 383.810 275.319 383.955 273.750 385.705 "/></g>
<g fill="#513736FF" stroke="#513736FF">
<path d="M 434.000 37.446 C 422.351 40.725 419.259 43.695 422.440 48.549 C 424.261 51.328 426.850 51.646 430.842 49.582 C 439.895 44.900 453.839 45.658 465.629 51.474 C 474.121 55.662 479.051 60.778 483.362 69.877 C 486.290 76.057 486.499 77.236 486.492 87.500 C 486.485 97.250 486.181 99.182 483.811 104.500 C 481.522 109.639 481.324 110.787 482.432 112.500 C 483.926 114.807 488.490 115.668 490.479 114.017 C 491.226 113.398 493.111 109.427 494.669 105.195 C 497.096 98.599 497.493 96.072 497.453 87.500 C 497.336 62.255 482.925 43.747 458.540 37.522 C 451.464 35.715 440.270 35.680 434.000 37.446 "/></g>
</svg>
