<?xml version="1.0" encoding="utf-8"?>
<!DOCTYPE svg PUBLIC "-//W3C//DTD SVG 20010904//EN" "http://www.w3.org/TR/2001/REC-SVG-20010904/DTD/svg10.dtd">
<svg version="1.0" xmlns="http://www.w3.org/2000/svg" width="394pt" height="263pt" viewBox="0 0 394 263" style="" preserveAspectRatio="xMidYMid meet">
<g fill="#76A7DFFF" stroke="#76A7DFFF">
<path d="M 16.240 4.047 C 13.897 5.241 11.038 7.542 9.887 9.159 C 3.249 18.481 -0.168 54.305 3.548 75.615 C 9.885 111.953 30.976 140.340 62.675 155.195 C 70.971 159.083 87.768 163.987 92.878 164.014 C 96.949 164.035 100.000 165.106 100.000 166.515 C 100.000 167.220 102.047 171.886 104.549 176.884 C 114.644 197.049 137.527 214.905 163.591 222.955 C 180.169 228.076 205.940 229.483 226.720 226.402 C 238.767 224.615 257.538 219.506 266.319 215.623 L 272.099 213.066 280.800 220.577 C 308.949 244.877 344.643 260.827 371.185 260.965 C 374.862 260.984 379.137 260.521 380.685 259.936 C 384.134 258.633 388.695 254.425 390.589 250.800 C 392.765 246.635 392.378 238.445 389.788 233.837 C 386.291 227.614 382.299 225.756 370.588 224.899 C 359.579 224.093 348.372 220.700 335.500 214.276 C 327.029 210.049 313.962 201.490 308.500 196.590 L 304.500 193.003 308.833 189.042 C 321.520 177.444 333.815 157.819 337.454 143.356 C 342.932 121.583 335.070 102.189 317.376 93.824 C 298.334 84.823 276.614 89.772 258.791 107.173 C 251.394 114.395 245.437 123.784 242.749 132.458 C 238.574 145.931 240.393 165.050 247.101 178.198 C 248.145 180.245 249.000 182.370 249.000 182.920 C 249.000 183.470 245.963 184.863 242.250 186.016 C 219.563 193.060 196.344 194.316 177.500 189.516 C 168.481 187.219 154.230 179.785 147.780 174.013 C 140.699 167.676 137.297 163.160 139.179 162.597 C 186.141 148.555 210.435 127.885 212.676 100.065 C 214.145 81.828 202.210 60.109 186.500 52.432 C 180.910 49.700 179.714 49.502 169.000 49.525 C 159.388 49.547 156.558 49.927 151.764 51.842 C 134.241 58.841 116.573 76.647 106.459 97.500 C 102.257 106.163 97.000 122.109 97.000 126.191 C 97.000 127.878 96.536 128.066 93.750 127.509 C 72.841 123.328 55.694 110.384 46.652 91.957 C 40.444 79.304 38.901 72.940 38.276 57.401 C 37.833 46.386 38.106 42.512 39.992 33.040 C 42.389 21.002 42.290 14.618 39.645 10.581 C 34.618 2.909 24.186 -0.003 16.240 4.047 M 173.365 87.250 C 178.654 95.679 177.520 101.594 169.194 109.015 C 161.176 116.161 136.581 127.914 134.339 125.672 C 133.263 124.596 139.103 112.014 144.249 104.320 C 154.391 89.155 169.137 80.510 173.365 87.250 M 302.335 127.068 C 304.122 129.619 302.780 135.575 298.520 144.000 C 294.047 152.847 283.656 165.000 280.564 165.000 C 280.285 165.000 279.096 161.834 277.921 157.964 C 276.389 152.922 275.969 149.693 276.438 146.566 C 278.319 134.022 297.232 119.782 302.335 127.068 "/></g>
</svg>
