<?xml version="1.0" encoding="utf-8"?>
<!DOCTYPE svg PUBLIC "-//W3C//DTD SVG 20010904//EN" "http://www.w3.org/TR/2001/REC-SVG-20010904/DTD/svg10.dtd">
<svg version="1.0" xmlns="http://www.w3.org/2000/svg" width="385pt" height="514pt" viewBox="0 0 385 514" style="" preserveAspectRatio="xMidYMid meet">
<g fill="#927054FF" stroke="#927054FF">
<path d="M 294.000 8.133 C 251.067 30.906 215.729 40.923 178.000 41.014 C 163.683 41.048 159.571 42.308 154.347 48.257 C 150.161 53.025 148.697 57.905 149.180 65.482 C 149.655 72.952 152.864 78.558 158.978 82.604 C 164.850 86.490 176.273 87.566 196.186 86.109 C 204.858 85.474 212.639 84.692 213.477 84.371 C 215.500 83.594 215.496 89.773 213.460 110.080 C 205.447 189.982 184.473 259.844 140.123 354.360 L 135.028 365.219 139.967 369.660 C 149.385 378.127 158.426 392.256 162.606 405.035 L 164.375 410.442 170.285 397.971 C 205.007 324.704 222.675 280.540 236.481 232.500 C 239.958 220.400 244.248 203.750 246.012 195.500 C 249.726 178.141 249.882 177.548 250.544 178.211 C 251.349 179.016 256.710 204.305 259.402 220.000 C 267.462 266.976 269.244 317.209 264.050 351.000 C 263.585 354.025 263.300 356.604 263.417 356.731 C 263.533 356.858 266.750 355.657 270.564 354.061 C 279.894 350.159 291.044 348.000 301.862 348.000 L 310.808 348.000 311.646 337.250 C 312.989 320.026 312.416 277.339 310.596 259.000 C 305.429 206.932 293.936 154.428 273.569 89.838 C 270.506 80.124 268.000 71.790 268.000 71.317 C 268.000 70.845 273.288 68.259 279.750 65.570 C 286.213 62.882 298.993 56.915 308.150 52.311 C 320.864 45.919 325.755 42.905 328.837 39.561 C 338.656 28.908 336.168 12.151 323.704 5.004 C 319.386 2.527 317.394 2.020 312.000 2.026 C 305.974 2.033 304.662 2.478 294.000 8.133 "/></g>
<g fill="#F66F6CFF" stroke="#F66F6CFF">
<path d="M 286.651 349.531 C 261.012 354.380 237.054 373.539 226.343 397.759 C 217.652 417.412 217.873 444.532 226.888 464.413 C 241.545 496.739 276.524 516.505 311.250 512.084 C 341.387 508.247 367.382 488.280 378.006 460.808 C 393.470 420.816 376.587 376.664 338.500 357.493 C 322.262 349.320 303.225 346.396 286.651 349.531 "/></g>
<g fill="#F66F6CFF" stroke="#F66F6CFF">
<path d="M 64.500 350.874 C 32.788 359.177 9.863 383.236 3.448 414.948 C 1.437 424.886 1.886 441.851 4.415 451.500 C 7.321 462.592 15.355 476.973 23.604 485.852 C 40.087 503.594 60.098 512.386 84.000 512.386 C 105.892 512.386 124.752 504.940 140.277 490.169 C 156.127 475.088 164.612 456.504 165.695 434.500 C 167.559 396.625 146.026 365.222 109.647 352.759 C 101.311 349.904 99.214 349.600 86.000 349.334 C 74.450 349.101 70.076 349.414 64.500 350.874 "/></g>
</svg>
