<?xml version="1.0" encoding="utf-8"?>
<!DOCTYPE svg PUBLIC "-//W3C//DTD SVG 20010904//EN" "http://www.w3.org/TR/2001/REC-SVG-20010904/DTD/svg10.dtd">
<svg version="1.0" xmlns="http://www.w3.org/2000/svg" width="582pt" height="418pt" viewBox="0 0 582 418" style="" preserveAspectRatio="xMidYMid meet">
<g fill="#F66F6CFF" stroke="#F66F6CFF">
<path d="M 110.785 3.978 C 100.871 6.069 93.094 8.459 88.000 10.979 C 86.075 11.932 82.250 13.714 79.500 14.940 C 61.146 23.119 27.893 52.107 19.777 67.003 C 19.029 68.377 16.970 71.731 15.201 74.457 C 7.929 85.668 3.248 101.933 2.383 119.000 C -0.630 178.440 47.757 248.692 145.673 327.036 C 176.947 352.058 218.680 381.120 256.000 403.863 C 265.741 409.799 272.625 413.423 272.805 412.709 C 272.973 412.044 280.012 385.850 288.448 354.500 L 303.785 297.500 280.783 274.383 L 257.781 251.265 272.890 222.642 C 281.201 206.899 288.000 193.616 288.000 193.124 C 288.000 192.632 286.984 191.564 285.743 190.751 C 280.863 187.554 243.481 158.749 243.186 157.959 C 243.014 157.497 250.533 142.121 259.896 123.790 L 276.919 90.462 268.264 79.981 C 234.180 38.707 191.046 10.234 152.500 3.564 C 140.374 1.466 121.828 1.650 110.785 3.978 "/></g>
<g fill="#F66F6CFF" stroke="#F66F6CFF">
<path d="M 429.500 16.613 C 403.917 20.325 376.681 32.686 354.000 50.878 C 345.560 57.647 328.289 74.728 321.520 83.000 C 317.712 87.653 311.343 99.042 299.101 123.085 C 289.695 141.557 282.022 157.082 282.048 157.585 C 282.074 158.088 292.199 166.106 304.548 175.402 C 316.897 184.698 327.000 192.637 327.000 193.044 C 327.000 193.452 321.553 204.071 314.895 216.643 C 308.238 229.214 301.482 242.087 299.882 245.249 L 296.972 250.997 319.236 273.566 C 331.481 285.978 341.616 296.891 341.757 297.817 C 341.898 298.743 335.104 325.264 326.658 356.753 C 313.609 405.407 311.517 414.184 312.728 415.189 C 314.692 416.819 316.622 415.708 347.976 394.888 C 468.268 315.011 548.376 234.702 572.345 169.957 C 578.259 153.980 580.268 141.886 579.728 125.500 C 579.235 110.553 576.945 100.824 571.254 89.500 C 558.792 64.704 527.059 38.254 494.381 25.425 C 477.618 18.845 467.298 16.810 449.000 16.477 C 439.925 16.313 431.150 16.374 429.500 16.613 "/></g>
</svg>
