<?xml version="1.0" encoding="utf-8"?>
<!DOCTYPE svg PUBLIC "-//W3C//DTD SVG 20010904//EN" "http://www.w3.org/TR/2001/REC-SVG-20010904/DTD/svg10.dtd">
<svg version="1.0" xmlns="http://www.w3.org/2000/svg" width="519pt" height="241pt" viewBox="0 0 519 241" style="" preserveAspectRatio="xMidYMid meet">
<g fill="#FDD37DFF" stroke="#FDD37DFF">
<path d="M 226.000 2.623 C 99.158 11.330 6.602 58.149 1.443 116.212 C -3.850 175.774 89.270 228.040 218.419 237.996 C 236.386 239.381 283.186 239.377 300.233 237.989 C 384.647 231.115 453.966 207.411 490.339 172.981 C 500.566 163.300 505.716 156.722 510.400 147.358 C 525.746 116.680 514.021 84.284 478.000 57.838 C 440.520 30.321 384.631 12.157 313.500 4.374 C 300.211 2.920 239.398 1.703 226.000 2.623 M 290.000 28.002 C 389.131 33.918 458.327 61.252 458.338 94.500 C 458.344 113.065 437.249 129.821 397.365 142.930 C 309.401 171.843 165.256 167.010 95.146 132.797 C 60.507 115.894 50.729 94.368 68.815 74.833 C 75.417 67.702 82.239 62.902 94.500 56.760 C 126.645 40.658 170.468 31.485 233.500 27.664 C 245.682 26.925 274.879 27.100 290.000 28.002 "/></g>
</svg>
