<?xml version="1.0" encoding="utf-8"?>
<!DOCTYPE svg PUBLIC "-//W3C//DTD SVG 20010904//EN" "http://www.w3.org/TR/2001/REC-SVG-20010904/DTD/svg10.dtd">
<svg version="1.0" xmlns="http://www.w3.org/2000/svg" width="602pt" height="237pt" viewBox="0 0 602 237" style="" preserveAspectRatio="xMidYMid meet">
<g fill="#927054FF" stroke="#927054FF">
<path d="M 10.542 1.729 C 7.014 2.625 4.202 5.056 2.471 8.702 C -0.416 14.787 1.477 18.573 11.777 27.308 C 46.552 56.804 101.347 85.404 150.086 99.500 C 156.914 101.475 164.525 103.740 167.000 104.533 C 190.437 112.048 238.918 120.277 277.205 123.239 C 297.817 124.834 344.331 124.778 362.000 123.136 C 379.835 121.480 410.116 117.145 411.445 116.059 C 412.025 115.584 416.100 114.658 420.500 114.000 C 431.310 112.383 455.441 105.373 472.501 98.892 C 489.226 92.539 520.155 77.213 535.850 67.500 C 571.521 45.424 596.916 27.674 598.826 23.482 C 602.466 15.494 596.747 7.000 587.729 7.000 C 585.057 7.000 581.120 9.272 568.731 17.964 C 525.397 48.366 485.124 69.896 449.000 81.973 C 442.675 84.088 429.175 87.621 419.000 89.825 C 383.911 97.425 362.640 99.925 326.500 100.694 C 286.001 101.557 254.551 98.859 212.946 90.952 C 186.598 85.945 173.510 82.515 147.542 73.813 C 99.420 57.687 56.184 34.357 24.454 7.394 C 21.679 5.035 18.162 2.632 16.639 2.053 C 13.726 0.945 13.646 0.941 10.542 1.729 "/></g>
<g fill="#5EB082FF" stroke="#5EB082FF">
<path d="M 395.000 119.090 C 371.292 122.873 351.289 124.316 321.253 124.409 C 305.167 124.459 292.005 124.617 292.003 124.760 C 292.001 124.902 296.554 134.127 302.120 145.260 C 329.527 200.071 350.230 232.263 359.585 234.611 C 362.043 235.228 362.907 234.745 366.550 230.722 C 372.729 223.897 381.707 204.587 391.375 177.326 C 398.961 155.936 410.000 120.781 410.000 118.012 C 410.000 116.762 409.252 116.815 395.000 119.090 "/></g>
<g fill="#FDD37DFF" stroke="#FDD37DFF">
<path d="M 525.475 73.760 C 514.672 80.186 483.756 94.722 470.000 99.843 C 456.890 104.724 429.368 112.984 426.112 113.015 C 420.956 113.064 421.744 114.789 432.568 127.140 C 450.242 147.308 485.425 181.852 494.339 187.787 C 509.766 198.060 512.700 196.470 518.534 174.680 C 523.518 156.064 528.742 116.807 530.686 83.353 L 531.451 70.205 525.475 73.760 "/></g>
<g fill="#FEE2DDFF" stroke="#FEE2DDFF">
<path d="M 168.000 105.767 C 168.000 107.901 182.494 147.550 189.653 165.000 C 199.407 188.773 205.575 201.619 211.798 211.119 C 219.608 223.041 222.493 224.260 228.998 218.383 C 234.429 213.476 238.395 207.834 247.194 192.500 C 258.073 173.540 280.785 125.452 279.478 124.145 C 279.196 123.862 272.560 123.047 264.732 122.334 C 248.305 120.837 226.312 117.825 210.500 114.907 C 199.452 112.868 173.019 106.747 169.750 105.470 C 168.788 105.094 168.000 105.228 168.000 105.767 "/></g>
<g fill="#FF95B1FF" stroke="#FF95B1FF">
<path d="M 58.000 62.244 C 58.000 63.020 58.682 73.745 59.516 86.077 C 62.291 127.130 66.862 159.618 71.661 172.396 C 72.673 175.089 74.709 178.193 76.187 179.294 L 78.874 181.296 84.379 178.603 C 95.926 172.954 121.288 148.445 149.680 115.500 C 158.224 105.586 159.715 103.386 158.261 102.844 C 157.292 102.483 150.875 100.406 144.000 98.229 C 124.237 91.971 99.186 81.613 78.539 71.161 C 68.067 65.861 59.163 61.369 58.750 61.179 C 58.338 60.989 58.000 61.468 58.000 62.244 "/></g>
</svg>
