<?xml version="1.0" encoding="utf-8"?>
<!DOCTYPE svg PUBLIC "-//W3C//DTD SVG 20010904//EN" "http://www.w3.org/TR/2001/REC-SVG-20010904/DTD/svg10.dtd">
<svg version="1.0" xmlns="http://www.w3.org/2000/svg" width="442pt" height="353pt" viewBox="0 0 442 353" style="" preserveAspectRatio="xMidYMid meet">
<g fill="#5EB082FF" stroke="#5EB082FF">
<path d="M 391.500 92.684 C 372.999 94.290 351.994 99.576 335.246 106.840 C 280.012 130.796 235.358 187.672 222.848 250.000 C 219.619 266.085 219.608 293.513 222.825 305.500 C 228.054 324.982 238.765 339.318 253.543 346.615 C 260.617 350.109 262.183 350.500 269.096 350.500 C 276.282 350.500 277.392 350.191 286.158 345.752 C 300.788 338.343 315.382 326.728 336.040 306.054 C 355.745 286.334 365.264 275.415 380.983 254.500 C 411.786 213.514 433.076 172.864 439.118 143.500 C 440.967 134.514 440.731 120.495 438.627 114.280 C 436.200 107.112 429.563 99.974 422.300 96.719 C 417.008 94.347 402.776 91.733 397.526 92.168 C 396.412 92.261 393.700 92.493 391.500 92.684 "/></g>
<g fill="#5EB082FF" stroke="#5EB082FF">
<path d="M 40.500 3.176 C 35.704 4.968 29.406 9.668 25.653 14.255 C 13.939 28.570 3.708 59.290 2.164 84.776 C 0.209 117.070 6.378 145.972 21.629 175.974 C 30.811 194.035 39.475 206.290 52.991 220.330 C 66.276 234.131 77.557 242.679 91.500 249.510 C 103.884 255.577 111.515 257.805 122.772 258.638 C 138.913 259.833 157.073 252.119 163.688 241.258 C 175.890 221.224 159.682 151.725 127.992 88.196 C 111.733 55.601 99.372 37.191 82.451 20.369 C 69.767 7.758 60.707 2.698 50.101 2.301 C 46.470 2.166 42.150 2.559 40.500 3.176 "/></g>
</svg>
