<?xml version="1.0" encoding="utf-8"?>
<!DOCTYPE svg PUBLIC "-//W3C//DTD SVG 20010904//EN" "http://www.w3.org/TR/2001/REC-SVG-20010904/DTD/svg10.dtd">
<svg version="1.0" xmlns="http://www.w3.org/2000/svg" width="487pt" height="478pt" viewBox="0 0 487 478" style="" preserveAspectRatio="xMidYMid meet">
<g fill="#FEFEFEFF" stroke="#FEFEFEFF">
<path d="M 153.500 3.434 C 124.258 9.248 104.032 26.435 96.159 52.161 C 92.043 65.610 91.261 84.544 94.127 101.354 C 94.676 104.573 94.950 107.383 94.736 107.597 C 94.522 107.811 91.942 106.827 89.003 105.409 C 75.611 98.948 56.414 97.084 43.705 101.009 C 21.957 107.727 3.133 134.047 1.337 160.249 C -0.002 179.786 6.992 195.887 24.500 213.575 C 34.644 223.823 49.906 234.924 60.678 239.888 L 65.857 242.275 65.299 263.887 C 64.435 297.336 66.917 333.724 72.058 363.000 C 77.502 393.999 88.687 426.167 98.229 438.272 C 103.960 445.541 119.265 454.791 134.788 460.367 C 189.663 480.078 294.168 481.700 364.399 463.932 C 392.312 456.870 413.649 446.204 420.841 435.718 C 435.944 413.698 443.658 374.959 445.576 311.500 C 446.172 291.760 444.695 237.832 443.413 232.500 C 443.042 230.962 444.769 228.943 450.889 223.758 C 465.537 211.347 476.963 194.627 482.157 178.000 C 484.103 171.771 484.494 168.381 484.462 158.000 C 484.428 146.631 484.144 144.707 481.327 136.739 C 477.168 124.973 472.814 118.048 464.819 110.485 C 452.689 99.012 435.498 92.474 414.423 91.319 L 403.346 90.713 402.171 78.606 C 401.525 71.948 400.075 62.900 398.950 58.500 C 396.159 47.586 387.361 29.943 380.724 21.950 C 375.608 15.788 365.187 6.696 360.316 4.144 C 358.766 3.332 344.430 3.000 310.950 3.000 L 263.768 3.000 259.134 6.408 C 252.169 11.530 239.744 24.790 234.325 32.882 C 234.184 33.092 231.527 30.940 228.419 28.100 C 215.974 16.726 200.705 8.055 187.000 4.580 C 177.882 2.267 162.087 1.727 153.500 3.434 M 252.456 146.156 C 274.597 149.899 297.297 162.062 312.777 178.476 C 326.725 193.266 332.595 206.481 331.812 221.329 C 331.229 232.375 328.040 239.236 319.680 247.434 C 304.717 262.105 277.685 270.221 239.000 271.655 C 185.579 273.635 155.767 258.110 154.213 227.500 C 153.278 209.078 161.593 190.619 178.925 172.643 C 187.676 163.566 195.600 157.626 205.500 152.721 C 221.972 144.560 233.489 142.950 252.456 146.156 M 317.000 41.380 C 338.949 46.641 354.352 55.262 359.695 65.275 C 362.547 70.619 362.036 79.443 358.503 85.870 C 348.784 103.552 318.649 116.070 295.420 112.074 C 281.289 109.643 272.414 103.047 266.394 90.500 C 255.340 67.463 263.116 45.782 284.384 40.345 C 290.827 38.698 308.096 39.246 317.000 41.380 M 406.681 132.569 C 438.621 139.166 452.652 153.870 443.024 170.655 C 438.279 178.930 429.573 185.134 416.500 189.556 C 410.040 191.742 406.671 192.265 399.000 192.273 C 383.059 192.290 373.554 187.199 367.250 175.268 C 357.252 156.345 362.884 137.893 380.324 132.439 C 386.085 130.638 397.607 130.695 406.681 132.569 M 200.911 46.025 C 206.264 49.028 208.837 52.328 210.056 57.755 C 213.392 72.602 198.290 95.737 179.410 104.703 C 172.392 108.036 170.683 108.441 163.523 108.469 C 156.779 108.495 154.618 108.067 149.967 105.782 C 142.900 102.312 135.684 95.094 132.222 88.033 C 123.306 69.848 135.825 53.083 163.500 46.150 C 175.307 43.192 175.647 43.151 186.500 43.359 C 195.070 43.523 197.131 43.904 200.911 46.025 M 86.500 133.718 C 94.859 138.104 98.125 143.665 98.125 153.510 C 98.125 164.196 92.792 175.394 83.756 183.679 C 75.372 191.367 64.907 194.804 55.798 192.861 C 46.206 190.815 34.178 179.437 30.107 168.556 C 23.511 150.928 33.222 137.695 56.500 132.590 C 66.489 130.399 81.232 130.953 86.500 133.718 "/></g>
<g fill="#76A7DFFF" stroke="#76A7DFFF">
<path d="M 229.161 145.057 C 211.595 147.389 193.910 157.100 178.925 172.643 C 148.908 203.776 145.533 240.084 171.000 257.882 C 186.140 268.463 207.639 272.818 239.000 271.655 C 277.685 270.221 304.717 262.105 319.680 247.434 C 328.040 239.236 331.229 232.375 331.812 221.329 C 332.595 206.481 326.725 193.266 312.777 178.476 C 294.491 159.086 268.936 147.054 241.000 144.682 C 237.975 144.425 232.648 144.594 229.161 145.057 "/></g>
<g fill="#76A7DFFF" stroke="#76A7DFFF">
<path d="M 284.384 40.345 C 272.581 43.363 265.372 50.513 262.364 62.187 C 260.214 70.532 261.648 80.610 266.394 90.500 C 272.414 103.047 281.289 109.643 295.420 112.074 C 318.649 116.070 348.784 103.552 358.503 85.870 C 362.036 79.443 362.547 70.619 359.695 65.275 C 354.352 55.262 338.949 46.641 317.000 41.380 C 308.096 39.246 290.827 38.698 284.384 40.345 "/></g>
<g fill="#76A7DFFF" stroke="#76A7DFFF">
<path d="M 380.324 132.439 C 373.478 134.580 369.098 137.899 366.031 143.270 C 360.737 152.539 361.164 163.750 367.250 175.268 C 373.554 187.199 383.059 192.290 399.000 192.273 C 417.458 192.253 435.804 183.245 443.024 170.655 C 450.859 156.996 443.316 144.646 422.551 137.132 C 406.454 131.307 389.847 129.462 380.324 132.439 "/></g>
<g fill="#76A7DFFF" stroke="#76A7DFFF">
<path d="M 174.000 43.657 C 144.571 49.417 129.658 60.436 129.550 76.500 C 129.475 87.587 138.097 99.953 149.967 105.782 C 154.618 108.067 156.779 108.495 163.523 108.469 C 170.683 108.441 172.392 108.036 179.410 104.703 C 198.290 95.737 213.392 72.602 210.056 57.755 C 208.837 52.328 206.264 49.028 200.911 46.025 C 197.131 43.904 195.070 43.523 186.500 43.359 C 181.000 43.254 175.375 43.388 174.000 43.657 "/></g>
<g fill="#76A7DFFF" stroke="#76A7DFFF">
<path d="M 56.500 132.590 C 33.222 137.695 23.511 150.928 30.107 168.556 C 34.178 179.437 46.206 190.815 55.798 192.861 C 64.907 194.804 75.372 191.367 83.756 183.679 C 92.792 175.394 98.125 164.196 98.125 153.510 C 98.125 143.665 94.859 138.104 86.500 133.718 C 81.232 130.953 66.489 130.399 56.500 132.590 "/></g>
</svg>
