<?xml version="1.0" encoding="utf-8"?>
<!DOCTYPE svg PUBLIC "-//W3C//DTD SVG 20010904//EN" "http://www.w3.org/TR/2001/REC-SVG-20010904/DTD/svg10.dtd">
<svg version="1.0" xmlns="http://www.w3.org/2000/svg" width="228pt" height="309pt" viewBox="0 0 228 309" style="" preserveAspectRatio="xMidYMid meet">
<g fill="#F66F6CFF" stroke="#F66F6CFF">
<path d="M 152.213 16.049 C 147.680 38.226 140.127 57.168 133.612 62.694 C 128.613 66.934 113.411 73.640 100.138 77.460 C 93.374 79.407 87.089 81.022 86.170 81.049 C 85.252 81.076 88.550 82.152 93.500 83.440 C 111.940 88.237 126.264 94.188 133.099 99.893 C 140.079 105.718 147.448 123.924 152.368 147.500 L 154.664 158.500 155.970 151.500 C 158.437 138.283 164.081 119.492 168.049 111.288 C 171.094 104.991 173.097 102.254 176.639 99.550 C 184.553 93.507 197.148 88.348 215.815 83.505 L 224.129 81.347 218.315 80.065 C 203.445 76.786 185.706 69.743 177.442 63.837 C 169.656 58.273 162.967 42.984 157.516 18.291 C 156.084 11.806 154.816 6.150 154.697 5.723 C 154.579 5.296 153.461 9.942 152.213 16.049 "/></g>
<g fill="#F66F6CFF" stroke="#F66F6CFF">
<path d="M 58.521 188.250 C 58.292 188.938 56.776 194.675 55.153 201.000 C 49.581 222.712 45.350 229.078 32.470 235.122 C 28.053 237.194 19.728 240.213 13.970 241.829 L 3.500 244.768 8.000 245.926 C 25.601 250.455 40.534 257.211 44.533 262.454 C 49.483 268.944 55.370 285.425 58.173 300.637 L 59.370 307.129 61.676 296.843 C 66.962 273.275 72.210 262.486 80.921 257.281 C 87.441 253.385 96.632 249.818 107.754 246.866 L 116.007 244.676 106.855 242.305 C 88.918 237.659 77.395 231.576 72.490 224.165 C 69.453 219.574 64.938 206.674 62.372 195.250 C 60.624 187.470 59.476 185.383 58.521 188.250 "/></g>
</svg>
