<?xml version="1.0" encoding="utf-8"?>
<!DOCTYPE svg PUBLIC "-//W3C//DTD SVG 20010904//EN" "http://www.w3.org/TR/2001/REC-SVG-20010904/DTD/svg10.dtd">
<svg version="1.0" xmlns="http://www.w3.org/2000/svg" width="580pt" height="369pt" viewBox="0 0 580 369" style="" preserveAspectRatio="xMidYMid meet">
<g fill="#76A7DFFF" stroke="#76A7DFFF">
<path d="M 187.000 3.939 C 167.593 8.044 142.409 21.728 129.042 35.430 C 126.590 37.944 123.791 40.000 122.823 40.000 C 120.620 40.000 91.658 68.109 80.064 81.500 C 54.225 111.344 36.651 137.329 21.900 167.500 C 8.654 194.594 1.805 218.559 1.608 238.500 C 1.510 248.435 1.756 250.047 4.148 255.148 C 9.725 267.043 20.223 274.060 33.500 274.768 C 43.518 275.301 50.715 272.860 57.739 266.545 C 65.446 259.616 67.792 254.264 69.491 239.738 C 71.168 225.408 74.430 215.042 82.470 198.500 C 103.440 155.355 146.016 104.250 180.173 81.225 C 187.240 76.462 195.187 72.000 196.605 72.000 C 197.947 72.000 196.132 86.678 193.517 96.963 C 190.185 110.070 184.962 124.500 169.795 162.500 C 139.380 238.702 132.749 273.138 142.560 303.939 C 148.089 321.295 161.983 331.345 180.500 331.383 C 195.564 331.414 207.987 325.108 224.353 309.124 C 236.406 297.351 247.178 284.040 270.985 251.500 C 312.629 194.579 342.416 162.052 362.894 151.137 L 368.768 148.006 369.330 150.753 C 370.848 158.180 369.057 177.471 362.019 229.500 C 355.933 274.500 355.669 277.308 355.687 297.000 C 355.700 310.428 356.165 317.693 357.384 323.500 C 363.525 352.744 386.205 370.281 412.581 366.180 C 440.423 361.851 475.158 334.277 507.914 290.500 C 522.445 271.079 544.415 237.586 566.049 201.870 C 574.929 187.212 576.935 183.143 577.957 177.727 C 582.384 154.264 561.740 133.446 538.566 138.006 C 526.263 140.426 518.951 146.636 510.180 162.113 C 494.878 189.113 460.536 240.850 445.537 259.500 C 436.619 270.588 425.395 282.679 424.668 281.981 C 423.999 281.337 425.978 264.120 430.471 231.500 C 436.284 189.290 436.483 186.850 436.492 157.500 C 436.501 125.129 435.581 118.750 428.958 105.260 C 416.786 80.466 396.435 72.109 364.133 78.640 C 360.081 79.459 356.031 80.495 355.133 80.942 C 354.235 81.389 351.700 82.316 349.500 83.002 C 337.087 86.872 315.110 100.005 307.042 108.375 C 304.590 110.919 301.956 113.000 301.188 113.000 C 296.240 113.000 262.285 149.857 237.161 182.500 C 233.968 186.648 234.506 184.836 242.813 163.458 C 259.436 120.685 265.316 96.985 265.257 73.000 C 265.212 54.740 261.119 39.954 252.631 27.383 C 238.674 6.714 214.576 -1.895 187.000 3.939 "/></g>
</svg>
