<?xml version="1.0" encoding="utf-8"?>
<!DOCTYPE svg PUBLIC "-//W3C//DTD SVG 20010904//EN" "http://www.w3.org/TR/2001/REC-SVG-20010904/DTD/svg10.dtd">
<svg version="1.0" xmlns="http://www.w3.org/2000/svg" width="418pt" height="264pt" viewBox="0 0 418 264" style="" preserveAspectRatio="xMidYMid meet">
<g fill="#76A7DFFF" stroke="#76A7DFFF">
<path d="M 348.500 136.903 C 321.534 144.288 258.505 181.266 219.500 212.584 C 205.056 224.182 204.495 224.940 204.529 232.818 C 204.578 244.203 212.320 257.021 221.646 261.161 C 225.692 262.957 226.078 262.953 237.646 260.991 C 264.062 256.510 321.523 240.627 354.500 228.691 C 394.341 214.270 412.019 204.532 415.055 195.333 C 416.927 189.660 415.601 181.603 411.386 173.046 C 408.449 167.083 405.553 163.383 397.584 155.409 C 388.894 146.713 386.187 144.670 378.000 140.630 C 366.261 134.836 359.272 133.953 348.500 136.903 "/></g>
<g fill="#76A7DFFF" stroke="#76A7DFFF">
<path d="M 49.000 3.886 C 31.569 9.521 13.249 24.783 5.627 40.018 C 2.531 46.207 2.000 48.258 2.000 54.024 C 2.000 70.653 10.312 98.431 27.428 139.000 C 35.375 157.837 56.082 199.107 61.766 207.439 C 68.358 217.101 70.434 218.426 78.756 218.288 C 87.931 218.136 95.690 215.078 102.264 209.024 L 107.500 204.202 107.396 186.351 C 107.242 159.775 102.852 119.984 95.497 78.500 C 89.383 44.011 83.243 21.915 76.645 10.656 C 71.835 2.450 61.369 -0.113 49.000 3.886 "/></g>
<g fill="#76A7DFFF" stroke="#76A7DFFF">
<path d="M 212.075 5.034 C 184.061 10.867 175.802 21.641 164.195 67.500 C 154.847 104.434 147.000 156.631 147.000 181.881 C 147.000 196.063 148.186 198.490 157.312 202.980 C 167.942 208.211 179.978 208.866 186.535 204.569 C 197.190 197.588 243.582 105.336 258.955 60.560 C 267.517 35.621 269.126 23.451 264.724 16.919 C 261.970 12.832 256.238 8.912 249.500 6.506 C 243.719 4.442 219.496 3.489 212.075 5.034 "/></g>
</svg>
